# xmcd CD database file
#
# Track frame offsets:
#	150
#	25385
#	54085
#	73052
#	92767
#	119535
#	141982
#	158387
#	183450
#	205320
#	226357
#	242865
#	261840
#	278547
#	303887
#
# Disc length: 4633 seconds
#
# Revision: 7
# Processed by: cddbd v1.4PL0 Copyright (c) Steve Scherf et al.
# Submitted via: CDex 1.50beta9
#
DISCID=ce12170f
DTITLE=B'z - The Ballads -Love and B'z-
DYEAR=2002
DGENRE=Jazz
TTITLE0=Itsuka no "Merry Christmas"
TTITLE1=ALONE
TTITLE2=Konya tsuki no mieru oka ni
TTITLE3=HOME
TTITLE4=Calling
TTITLE5=TIME
TTITLE6=Kienai niji
TTITLE7=Gekko
TTITLE8=Happiness
TTITLE9=Mou ichido Kiss shitakatta
TTITLE10=Naite naite nakiyandara
TTITLE11=ONE
TTITLE12=Everlasting
TTITLE13=GOLD
TTITLE14=SNOW
EXTD=YEAR: 2002
EXTT0=
EXTT1=
EXTT2=
EXTT3=
EXTT4=
EXTT5=
EXTT6=
EXTT7=
EXTT8=
EXTT9=
EXTT10=
EXTT11=
EXTT12=
EXTT13=
EXTT14=
PLAYORDER=
